<?xml version="1.0" encoding="UTF-8"?>
<svg id="Finalizing_copy" data-name="Finalizing copy" xmlns="http://www.w3.org/2000/svg" viewBox="0 0 1000 1000">
  <defs>
    <style>
      .cls-1 {
        fill: #fff;
      }
    </style>
  </defs>
  <g>
    <path class="cls-1" d="M470.74,698.65c54.14-5.79,82.32-47.43,57.9-99.61-12.39-25.84-38.11-24.44-59.76-37.03-9.9-7.92-15.64-18.71-25.34-27.28-24.41-22.94-57.87-7.3-70.16,20.14-12.34,24.69-16.08,47.1-10.88,73.08,1.8,9.46,16.12,29.98,26.47,16.57,5.85-9.09,11.69-16.89,20.14-23.39,20.07-14.52,51.69-31.75,71.46-7.8,23.8,31.43-.65,77.93-36.74,86.35-1.4.32-1.56,2.25-.24,2.82,215.05,91.93,369.94-173.83,218.61-338.49-.25-.27-.69-.25-.9.05-.11.16-.23.35-.33.57-1.02,2.04-.91,4.45.13,6.48,14.25,27.71.36,58.56-7.79,85.66-.77,5.91.39,11.61,2.48,17.12,6.28,16.14,1.88,34.74-6.22,49.46-14.74,19.09-1.53,41.3-2.9,62.66-1.33,34.15-20.51,64.79-43.72,88.75-1,.99-.87.73-1.43.47-.38-.17-.51-.63-.3-.98,18.72-31.59,23.3-75.15,20.64-110.95,2.45-3.28,6.21-7.23,8.07-11.13,15.57-32.67,4.76-101.09,10.76-121.01.03-.11.08-.21.14-.31,46.23-81.76-35.7-173.88-76.45-244.32-.66-1.3-4.55-5.2-5.85-1.3-3.9,8.45-6.5,16.24-7.8,25.34-6.44,43.89-20.31,88.13,21.44,118.88,66.18,62.14,60.91,121.54,49.85,205.28-.64,3.25-.64,6.17-3.89,6.82-2.27.57-3.21.94-6.66,5.03-.47.56-1.4.19-1.33-.54.64-7.34-6.93-14.62-3.54-22.35,43.02-79.38-47.43-226.74-145.51-194.23-5.32,1.35-9.71,7.48-3.25,11.04,16.34,8.68,23.96,24.98,33.78,39.63,22.29,35.8,14.45,78.58,30.53,116.28,18.08,30.68,40.67,17.87,64.31,31.83,65.85,77.91-27.98,205.92-121.3,174.41-1.33-.45-1.28-2.23,0-2.85.42-.21,1.49-.47,1.97-.64.57-.18,3.17-.48,3.62-.52h-.01Z"/>
    <path class="cls-1" d="M566.37,532.49c-13.03-12.34-41.74,12.15-61.28-21.63-14.25-20.66-17.32-47.08-25.98-70.81-12.43-36.12-64.06-47.98-91.14-20.96-8.5-3.92,3.89-18.91,10.65-25.98l.36-.49c9.97,3.26,21.66-5.83,21.66-15.58.65-7.15,1.3-13.64,5.2-19.49,15.69-21.7,29.88-43.34,29.76-69.67,6.45,1.87,10.53-2.14,13.12-7.31,2.18-6.72-1.46-13.32-.81-19.81,45.58-26.87,34.9-70.92,69.02-88.35,8.5-4.85,20.46,6.96,23.39,1.3-10.13-37.81-23.94-85.03-61.71-103.94-10.19,1.42-11.22,12.8-13.64,20.79-27.78,65.38-60.52,89.19-38.32,165-5.05,7.4-12.63,10.1-8.48,21.96,1,2.85,2.57,5.27,7.17,7.27-8.44,24.82-17.19,51.6-38.6,68.29l-.4-.05c14.45-42.5,16.91-87.17,18.23-132.1.06-2.18-2.85-2.97-3.9-1.05-18.91,34.83-56.69,95.32-36.46,127.19.1.16.21.29.34.42,3.69,3.49,11.52,7.32,10.47,12.69-9.94.73-10.47,14.84-10.5,19.51-42.75,30.01-2.59,72.66-32.07,85.69-17.89-21.79-3.88-75.09-14.94-75.68-22.54,24.55-43.34,63.33-50.49,89.55-15.98,58.58-12.13,111.69,10.58,148.58,18.82,30.56,49.05,50.55,76.9,58.56,34.81,10,69.31-7.69,74.58-52.04.03-.24-.04-.47-.14-.7-.02-.04-.03-.08-.05-.13-.14-.4-.71-.12-.83.05-3.68,4.76-8.8,14.89-16.35,18.41-135.79,59.82-113.66-203.54-34.72-186.45,16.78,3.63,30.62,35.85,58.13,59.3,14.95,8.8,21.77,13.33,40.59,16.04,14.24,2.05,41.9,6.74,50.86-.39,2.4-1.9,5.75-3.42,8.69-4.52,3.15-1.18,7.82-.69,10.91-2.12.54-.24.66-.94.23-1.34h-.03,0Z"/>
  </g>
  <g>
    <path class="cls-1" d="M213.4,856.05c0,7.69-1.3,14.7-3.88,21.05-2.58,6.35-6.29,11.75-11.12,16.19-4.83,4.44-10.66,7.87-17.47,10.32-6.81,2.45-14.41,3.68-22.74,3.68s-15.6-1.95-22.54-5.87c-6.94-3.9-12.29-8.91-15.99-15v8.74c0,3.71-.72,6.35-2.19,7.95-1.47,1.6-3.84,2.38-7.15,2.38h-14.5v-120.57l17.81-13.8c2.47-1.91,6.03-.15,6.03,2.95v51.54c3.84-6.35,9.26-11.42,16.28-15.19,7.02-3.77,14.43-5.66,22.24-5.66,8.34,0,15.89,1.23,22.65,3.68,6.76,2.45,12.55,5.92,17.38,10.43,4.83,4.49,8.58,9.9,11.21,16.19,2.66,6.29,3.97,13.28,3.97,20.96h0v.02ZM119.66,878.29c3.04,5.03,7.26,9.12,12.61,12.22,5.37,3.12,11.16,4.66,17.38,4.66,5.57,0,10.66-.93,15.3-2.79s8.61-4.49,11.92-7.95c3.3-3.43,5.89-7.58,7.74-12.42,1.86-4.83,2.79-10.16,2.79-15.99s-.93-11.16-2.79-15.99-4.44-8.97-7.74-12.42c-3.3-3.43-7.28-6.09-11.92-7.95s-9.73-2.79-15.3-2.79c-6.22,0-12.01,1.56-17.38,4.66-5.37,3.12-9.56,7.19-12.61,12.22v44.52Z"/>
    <path class="cls-1" d="M240.27,770.25c2.47-1.63,5.76.15,5.76,3.1v132.14h.02-23.84v-123.36l18.07-11.9v.02Z"/>
    <path class="cls-1" d="M254.86,824.65l17.82-13.81c2.45-1.89,6-.15,6,2.93v56.57c0,7.95,1.99,14.11,5.96,18.47s9.6,6.55,16.88,6.55c5.96,0,11.05-1.82,15.3-5.46,4.23-3.64,7.35-8.76,9.34-15.39l.2-49.85,17.82-13.83c2.43-1.89,6-.15,6,2.93v91.74h-14.7c-6.22,0-9.34-3.43-9.34-10.32v-11.72c-1.32,3.58-3.16,6.81-5.46,9.73-2.32,2.91-4.94,5.42-7.85,7.56-2.91,2.12-6.03,3.77-9.34,4.96-3.3,1.19-6.68,1.78-10.14,1.78-5.7,0-10.92-.85-15.69-2.58s-8.84-4.1-12.22-7.15c-3.38-3.04-6-6.76-7.85-11.12-1.86-4.36-2.79-9.21-2.79-14.5v-47.48h.06v-.02Z"/>
    <path class="cls-1" d="M443.35,894.48c-5.57,4.05-12.12,6.05-19.66,6.05-5.7,0-10.94-1.11-15.71-3.38-4.75-2.25-8.93-5.42-12.51-9.52-3.56-4.1-6.44-8.97-8.63-14.61-2.19-5.63-3.47-11.88-3.88-18.75h77.07c0-7.3-1.15-13.94-3.47-19.98-2.32-6.02-5.55-11.21-9.73-15.58-4.18-4.38-9.17-7.76-15-10.14-5.83-2.4-12.25-3.58-19.25-3.58-7.69,0-14.87,1.37-21.56,4.08-6.7,2.71-12.55,6.39-17.58,11.01-5.03,4.64-9,10.06-11.92,16.3-2.91,6.22-4.36,12.85-4.36,19.85s1.39,14.07,4.16,20.37c2.79,6.29,6.67,11.72,11.62,16.28,4.98,4.57,10.82,8.15,17.58,10.73s14.11,3.88,22.06,3.88c5.94,0,11.25-.59,15.87-1.8,4.64-1.19,8.87-3.14,12.72-5.85,1.84-1.3,3.6-2.77,5.29-4.42v-.04c.71-.78,1.89-2.51,1.52-4.96-1.54,1.56-3.08,2.91-4.64,4.05h.02,0ZM382.97,848.47c0-6.35.71-9.75,2.1-14.96,1.39-5.24,2.77-7.78,5.35-11.55s5.74-5.94,9.3-8c3.58-2.04,7.48-3.08,11.72-3.08,6.37,0,12.55,1.97,16.25,5.53,3.71,3.58,4.96,5.48,4.96,11.44,0,7.54-2.71,12.18-8.15,16.23-5.42,4.03-13.29,4.81-23.64,4.81h-17.88v-.41h0Z"/>
    <path class="cls-1" d="M636.5,905.51h-23.84v-62.18c0-7.67-2.25-13.78-6.76-18.27-4.51-4.49-10.53-6.76-18.08-6.76-5.29,0-9.97,1.49-14,4.47-4.05,2.97-7.19,7.24-9.43,12.81.13,1.06.22,2.06.3,2.97.07.93.09,1.93.09,2.97v63.96h-23.84v-62.18c0-7.56-2.12-13.61-6.35-18.18-4.23-4.57-9.73-6.85-16.49-6.85-5.96,0-11.08,1.86-15.39,5.57-4.31,3.71-7.45,8.93-9.43,15.69v65.95h-23.84v-80.84l17.84-13.83c2.43-1.89,6-.15,6,2.93v16.86c1.32-3.43,3.1-6.65,5.37-9.64,2.25-2.97,4.83-5.57,7.74-7.74,2.91-2.19,6.05-3.9,9.43-5.16,3.38-1.26,6.85-1.89,10.43-1.89,9.39,0,17.34,2.15,23.84,6.46,6.48,4.31,10.86,10.16,13.11,17.58,1.32-3.43,3.1-6.63,5.37-9.52,2.25-2.91,4.83-5.46,7.74-7.65s6.02-3.88,9.34-5.07c3.3-1.19,6.76-1.78,10.32-1.78,5.96,0,11.42.85,16.39,2.58,4.96,1.73,9.23,4.18,12.81,7.35s6.35,6.93,8.34,11.21c1.99,4.31,2.99,9.04,2.99,14.2v63.96h0Z"/>
    <path class="cls-1" d="M643.47,786.92c0-3.84,1.32-7.11,3.97-9.84,2.66-2.71,5.89-4.07,9.73-4.07s7.11,1.36,9.84,4.07c2.71,2.71,4.07,6,4.07,9.84s-1.36,7.09-4.07,9.73c-2.71,2.66-6,3.97-9.84,3.97s-7.09-1.32-9.73-3.97c-2.66-2.66-3.97-5.89-3.97-9.73ZM671.67,905.51h-23.84v-80.84l17.82-13.83c2.43-1.89,6-.15,6,2.93v91.74h.02Z"/>
    <path class="cls-1" d="M777.78,905.51h-23.84v-62.18c0-7.95-1.99-14.11-5.96-18.47-3.97-4.36-9.6-6.55-16.88-6.55-5.57,0-10.62,1.95-15.19,5.87-4.57,3.9-7.78,9.04-9.64,15.39v65.95h-23.84v-80.84l17.84-13.83c2.43-1.89,6-.15,6,2.93v16.86c1.32-3.43,3.1-6.65,5.37-9.64,2.25-2.97,4.83-5.57,7.74-7.74,2.91-2.19,6.05-3.9,9.43-5.16,3.38-1.26,6.85-1.89,10.43-1.89,5.83,0,11.08.85,15.78,2.58,4.7,1.73,8.74,4.1,12.12,7.15,3.38,3.04,6,6.76,7.85,11.12,1.86,4.36,2.79,9.21,2.79,14.5v63.96h-.02Z"/>
    <path class="cls-1" d="M880.34,784.94l17.84-13.83c2.43-1.89,6-.15,6,2.93v131.47h-14.5c-3.3,0-5.7-.8-7.15-2.38-1.47-1.6-2.19-4.23-2.19-7.95v-8.74c-3.71,6.09-9.04,11.08-15.99,15-6.94,3.9-14.46,5.87-22.54,5.87s-15.93-1.23-22.74-3.68c-6.81-2.45-12.64-5.89-17.49-10.32-4.83-4.44-8.54-9.84-11.12-16.19s-3.88-13.37-3.88-21.05,1.32-14.43,3.97-20.66c2.66-6.22,6.35-11.62,11.12-16.19s10.43-8.11,16.99-10.62,13.74-3.77,21.56-3.77c4.36,0,8.61.5,12.72,1.49,4.1,1,7.91,2.41,11.42,4.27s6.65,4.07,9.43,6.65,4.96,5.4,6.55,8.45v-40.72h0v-.02ZM880.34,833.8c-3.04-5.03-7.24-9.1-12.61-12.22-5.37-3.12-11.16-4.66-17.38-4.66-5.57,0-10.66.93-15.3,2.79s-8.61,4.51-11.92,7.95c-3.3,3.45-5.89,7.58-7.74,12.42-1.86,4.83-2.79,10.16-2.79,15.99s.93,11.16,2.79,15.99c1.86,4.83,4.44,8.97,7.74,12.42s7.28,6.09,11.92,7.95c4.64,1.86,9.73,2.79,15.3,2.79,6.22,0,12.01-1.56,17.38-4.66s9.56-7.19,12.61-12.22v-44.52Z"/>
  </g>
  <line class="cls-1" x1="734.63" y1="541.98" x2="886.83" y2="548.11"/>
</svg>