<?xml version="1.0" encoding="UTF-8"?>
<svg id="Finalizing_copy" data-name="Finalizing copy" xmlns="http://www.w3.org/2000/svg" viewBox="0 0 1000 1000">
  <g>
    <path d="M470.74,747.37c54.14-5.79,82.32-47.43,57.9-99.61-12.39-25.84-38.11-24.44-59.76-37.03-9.9-7.92-15.64-18.71-25.34-27.28-24.41-22.94-57.87-7.3-70.16,20.14-12.34,24.69-16.08,47.1-10.88,73.08,1.8,9.46,16.12,29.98,26.47,16.57,5.85-9.09,11.69-16.89,20.14-23.39,20.07-14.52,51.69-31.75,71.46-7.8,23.8,31.43-.65,77.93-36.74,86.35-1.4.32-1.56,2.25-.24,2.82,215.05,91.93,369.94-173.83,218.61-338.49-.25-.27-.69-.25-.9.05-.11.16-.23.35-.33.57-1.02,2.04-.91,4.45.13,6.48,14.25,27.71.36,58.56-7.79,85.66-.77,5.91.39,11.61,2.48,17.12,6.28,16.14,1.88,34.74-6.22,49.46-14.74,19.09-1.53,41.3-2.9,62.66-1.33,34.15-20.51,64.79-43.72,88.75-1,.99-.87.73-1.43.47-.38-.17-.51-.63-.3-.98,18.72-31.59,23.3-75.15,20.64-110.95,2.45-3.28,6.21-7.23,8.07-11.13,15.57-32.67,4.76-101.09,10.76-121.01.03-.11.08-.21.14-.31,46.23-81.76-35.7-173.88-76.45-244.32-.66-1.3-4.55-5.2-5.85-1.3-3.9,8.45-6.5,16.24-7.8,25.34-6.44,43.89-20.31,88.13,21.44,118.88,66.18,62.14,60.91,121.54,49.85,205.28-.64,3.25-.64,6.17-3.89,6.82-2.27.57-3.21.94-6.66,5.03-.47.56-1.4.19-1.33-.54.64-7.34-6.93-14.62-3.54-22.35,43.02-79.38-47.43-226.74-145.51-194.23-5.32,1.35-9.71,7.48-3.25,11.04,16.34,8.68,23.96,24.98,33.78,39.63,22.29,35.8,14.45,78.58,30.53,116.28,18.08,30.68,40.67,17.87,64.31,31.83,65.85,77.91-27.98,205.92-121.3,174.41-1.33-.45-1.28-2.23,0-2.85.42-.21,1.49-.47,1.97-.64.57-.18,3.17-.48,3.62-.52h-.01Z"/>
    <path d="M566.37,581.21c-13.03-12.34-41.74,12.15-61.28-21.63-14.25-20.66-17.32-47.08-25.98-70.81-12.43-36.12-64.06-47.98-91.14-20.96-8.5-3.92,3.89-18.91,10.65-25.98l.36-.49c9.97,3.26,21.66-5.83,21.66-15.58.65-7.15,1.3-13.64,5.2-19.49,15.69-21.7,29.88-43.34,29.76-69.67,6.45,1.87,10.53-2.14,13.12-7.31,2.18-6.72-1.46-13.32-.81-19.81,45.58-26.87,34.9-70.92,69.02-88.35,8.5-4.85,20.46,6.96,23.39,1.3-10.13-37.81-23.94-85.03-61.71-103.94-10.19,1.42-11.22,12.8-13.64,20.79-27.78,65.38-60.52,89.19-38.32,165-5.05,7.4-12.63,10.1-8.48,21.96,1,2.85,2.57,5.27,7.17,7.27-8.44,24.82-17.19,51.6-38.6,68.29l-.4-.05c14.45-42.5,16.91-87.17,18.23-132.1.06-2.18-2.85-2.97-3.9-1.05-18.91,34.83-56.69,95.32-36.46,127.19.1.16.21.29.34.42,3.69,3.49,11.52,7.32,10.47,12.69-9.94.73-10.47,14.84-10.5,19.51-42.75,30.01-2.59,72.66-32.07,85.69-17.89-21.79-3.88-75.09-14.94-75.68-22.54,24.55-43.34,63.33-50.49,89.55-15.98,58.58-12.13,111.69,10.58,148.58,18.82,30.56,49.05,50.55,76.9,58.56,34.81,10,69.31-7.69,74.58-52.04.03-.24-.04-.47-.14-.7-.02-.04-.03-.08-.05-.13-.14-.4-.71-.12-.83.05-3.68,4.76-8.8,14.89-16.35,18.41-135.79,59.82-113.66-203.54-34.72-186.45,16.78,3.63,30.62,35.85,58.13,59.3,14.95,8.8,21.77,13.33,40.59,16.04,14.24,2.05,41.9,6.74,50.86-.39,2.4-1.9,5.75-3.42,8.69-4.52,3.15-1.18,7.82-.69,10.91-2.12.54-.24.66-.94.23-1.34h-.03Z"/>
  </g>
  <g>
    <path d="M345.64,863.49c0,4.14-.7,7.92-2.09,11.34-1.39,3.42-3.39,6.33-5.99,8.72-2.6,2.39-5.74,4.24-9.41,5.56s-7.76,1.98-12.25,1.98-8.4-1.05-12.14-3.16c-3.74-2.1-6.62-4.8-8.61-8.08v4.71c0,2-.39,3.42-1.18,4.28-.79.86-2.07,1.28-3.85,1.28h-7.81v-64.94l9.59-7.43c1.33-1.03,3.25-.08,3.25,1.59v27.76c2.07-3.42,4.99-6.15,8.77-8.18,3.78-2.03,7.77-3.05,11.98-3.05,4.49,0,8.56.66,12.2,1.98s6.76,3.19,9.36,5.62c2.6,2.42,4.62,5.33,6.04,8.72,1.43,3.39,2.14,7.15,2.14,11.29h0ZM295.15,875.47c1.64,2.71,3.91,4.91,6.79,6.58,2.89,1.68,6.01,2.51,9.36,2.51,3,0,5.74-.5,8.24-1.5s4.64-2.42,6.42-4.28c1.78-1.85,3.17-4.08,4.17-6.69,1-2.6,1.5-5.47,1.5-8.61s-.5-6.01-1.5-8.61-2.39-4.83-4.17-6.69c-1.78-1.85-3.92-3.28-6.42-4.28s-5.24-1.5-8.24-1.5c-3.35,0-6.47.84-9.36,2.51-2.89,1.68-5.15,3.87-6.79,6.58v23.98Z"/>
    <path d="M360.11,817.28c1.33-.88,3.1.08,3.1,1.67v71.17h.01-12.84v-66.44l9.73-6.41Z"/>
    <path d="M367.97,846.58l9.6-7.44c1.32-1.02,3.23-.08,3.23,1.58v30.47c0,4.28,1.07,7.6,3.21,9.95s5.17,3.53,9.09,3.53c3.21,0,5.95-.98,8.24-2.94,2.28-1.96,3.96-4.72,5.03-8.29l.11-26.85,9.6-7.45c1.31-1.02,3.23-.08,3.23,1.58v49.41h-7.92c-3.35,0-5.03-1.85-5.03-5.56v-6.31c-.71,1.93-1.7,3.67-2.94,5.24-1.25,1.57-2.66,2.92-4.23,4.07-1.57,1.14-3.25,2.03-5.03,2.67-1.78.64-3.6.96-5.46.96-3.07,0-5.88-.46-8.45-1.39s-4.76-2.21-6.58-3.85c-1.82-1.64-3.23-3.64-4.23-5.99s-1.5-4.96-1.5-7.81v-25.57h.03Z"/>
    <path d="M469.49,884.19c-3,2.18-6.53,3.26-10.59,3.26-3.07,0-5.89-.6-8.46-1.82-2.56-1.21-4.81-2.92-6.74-5.13-1.92-2.21-3.47-4.83-4.65-7.87-1.18-3.03-1.87-6.4-2.09-10.1h41.51c0-3.93-.62-7.51-1.87-10.76-1.25-3.24-2.99-6.04-5.24-8.39-2.25-2.36-4.94-4.18-8.08-5.46-3.14-1.29-6.6-1.93-10.37-1.93-4.14,0-8.01.74-11.61,2.2-3.61,1.46-6.76,3.44-9.47,5.93-2.71,2.5-4.85,5.42-6.42,8.78-1.57,3.35-2.35,6.92-2.35,10.69s.75,7.58,2.24,10.97c1.5,3.39,3.59,6.31,6.26,8.77,2.68,2.46,5.83,4.39,9.47,5.78,3.64,1.39,7.6,2.09,11.88,2.09,3.2,0,6.06-.32,8.55-.97,2.5-.64,4.78-1.69,6.85-3.15.99-.7,1.94-1.49,2.85-2.38v-.02c.38-.42,1.02-1.35.82-2.67-.83.84-1.66,1.57-2.5,2.18h.01ZM436.97,859.41c0-3.42.38-5.25,1.13-8.06.75-2.82,1.49-4.19,2.88-6.22s3.09-3.2,5.01-4.31c1.93-1.1,4.03-1.66,6.31-1.66,3.43,0,6.76,1.06,8.75,2.98,2,1.93,2.67,2.95,2.67,6.16,0,4.06-1.46,6.56-4.39,8.74-2.92,2.17-7.16,2.59-12.73,2.59h-9.63v-.22Z"/>
    <path d="M573.52,890.13h-12.84v-33.49c0-4.13-1.21-7.42-3.64-9.84-2.43-2.42-5.67-3.64-9.74-3.64-2.85,0-5.37.8-7.54,2.41-2.18,1.6-3.87,3.9-5.08,6.9.07.57.12,1.11.16,1.6.04.5.05,1.04.05,1.6v34.45h-12.84v-33.49c0-4.07-1.14-7.33-3.42-9.79-2.28-2.46-5.24-3.69-8.88-3.69-3.21,0-5.97,1-8.29,3s-4.01,4.81-5.08,8.45v35.52h-12.84v-43.54l9.61-7.45c1.31-1.02,3.23-.08,3.23,1.58v9.08c.71-1.85,1.67-3.58,2.89-5.19,1.21-1.6,2.6-3,4.17-4.17,1.57-1.18,3.26-2.1,5.08-2.78,1.82-.68,3.69-1.02,5.62-1.02,5.06,0,9.34,1.16,12.84,3.48,3.49,2.32,5.85,5.47,7.06,9.47.71-1.85,1.67-3.57,2.89-5.13,1.21-1.57,2.6-2.94,4.17-4.12s3.24-2.09,5.03-2.73c1.78-.64,3.64-.96,5.56-.96,3.21,0,6.15.46,8.83,1.39,2.67.93,4.97,2.25,6.9,3.96s3.42,3.73,4.49,6.04c1.07,2.32,1.61,4.87,1.61,7.65v34.45h0Z"/>
    <path d="M577.27,826.26c0-2.07.71-3.83,2.14-5.3,1.43-1.46,3.17-2.19,5.24-2.19s3.83.73,5.3,2.19c1.46,1.46,2.19,3.23,2.19,5.3s-.73,3.82-2.19,5.24c-1.46,1.43-3.23,2.14-5.3,2.14s-3.82-.71-5.24-2.14c-1.43-1.43-2.14-3.17-2.14-5.24ZM592.46,890.13h-12.84v-43.54l9.6-7.45c1.31-1.02,3.23-.08,3.23,1.58v49.41h.01Z"/>
    <path d="M649.61,890.13h-12.84v-33.49c0-4.28-1.07-7.6-3.21-9.95s-5.17-3.53-9.09-3.53c-3,0-5.72,1.05-8.18,3.16-2.46,2.1-4.19,4.87-5.19,8.29v35.52h-12.84v-43.54l9.61-7.45c1.31-1.02,3.23-.08,3.23,1.58v9.08c.71-1.85,1.67-3.58,2.89-5.19,1.21-1.6,2.6-3,4.17-4.17,1.57-1.18,3.26-2.1,5.08-2.78,1.82-.68,3.69-1.02,5.62-1.02,3.14,0,5.97.46,8.5,1.39s4.71,2.21,6.53,3.85c1.82,1.64,3.23,3.64,4.23,5.99s1.5,4.96,1.5,7.81v34.45h0Z"/>
    <path d="M704.85,825.19l9.61-7.45c1.31-1.02,3.23-.08,3.23,1.58v70.81h-7.81c-1.78,0-3.07-.43-3.85-1.28-.79-.86-1.18-2.28-1.18-4.28v-4.71c-2,3.28-4.87,5.97-8.61,8.08-3.74,2.1-7.79,3.16-12.14,3.16s-8.58-.66-12.25-1.98c-3.67-1.32-6.81-3.17-9.42-5.56-2.6-2.39-4.6-5.3-5.99-8.72s-2.09-7.2-2.09-11.34.71-7.77,2.14-11.13c1.43-3.35,3.42-6.26,5.99-8.72s5.62-4.37,9.15-5.72,7.4-2.03,11.61-2.03c2.35,0,4.64.27,6.85.8,2.21.54,4.26,1.3,6.15,2.3s3.58,2.19,5.08,3.58,2.67,2.91,3.53,4.55v-21.93h0ZM704.85,851.51c-1.64-2.71-3.9-4.9-6.79-6.58s-6.01-2.51-9.36-2.51c-3,0-5.74.5-8.24,1.5s-4.64,2.43-6.42,4.28c-1.78,1.86-3.17,4.08-4.17,6.69-1,2.6-1.5,5.47-1.5,8.61s.5,6.01,1.5,8.61c1,2.6,2.39,4.83,4.17,6.69s3.92,3.28,6.42,4.28,5.24,1.5,8.24,1.5c3.35,0,6.47-.84,9.36-2.51s5.15-3.87,6.79-6.58v-23.98Z"/>
  </g>
</svg>